<svg version="1.1" xmlns="http://www.w3.org/2000/svg" viewBox="0 0 4668.842164243873 970.5135863280893" width="4668.842164243873" height="970.5135863280893" filter="invert(93%) hue-rotate(180deg)">
  <!-- svg-source:excalidraw -->
  
  <defs>
    <style class="style-fonts">
      
    </style>
    
  </defs>
  <g stroke-linecap="round" transform="translate(438.8803803264673 438.45987660198443) rotate(0 96.38672960913937 89.40218398528805)"><path d="M99.01 -0.55 C110.84 -1.66, 124.6 2.42, 135.73 7.31 C146.85 12.2, 157.26 20.54, 165.77 28.79 C174.28 37.05, 182.29 46.16, 186.79 56.82 C191.29 67.47, 193.1 81.24, 192.79 92.71 C192.48 104.17, 190.07 115.4, 184.93 125.61 C179.79 135.81, 171.05 146.05, 161.95 153.93 C152.85 161.81, 141.64 168.57, 130.32 172.87 C119 177.17, 106.38 180.03, 94.02 179.71 C81.66 179.4, 67.43 175.73, 56.15 170.98 C44.87 166.24, 34.66 159.47, 26.35 151.25 C18.04 143.02, 10.81 132.5, 6.28 121.64 C1.76 110.77, -1.05 97.47, -0.78 86.06 C-0.51 74.65, 2.65 63.47, 7.9 53.19 C13.15 42.91, 21.66 32.33, 30.7 24.39 C39.74 16.46, 49.09 9.66, 62.14 5.59 C75.19 1.52, 99.99 0.39, 109.01 -0.02 C118.03 -0.44, 116.6 1.61, 116.25 3.08 M107.51 1.53 C119.21 1.37, 132.18 5.62, 142.97 11.02 C153.76 16.43, 164.32 24.77, 172.23 33.94 C180.15 43.12, 187.33 54.91, 190.46 66.06 C193.58 77.2, 192.43 89.57, 190.97 100.82 C189.51 112.06, 187.49 123.72, 181.69 133.53 C175.9 143.33, 166.24 152.56, 156.22 159.64 C146.21 166.72, 133.68 172.79, 121.61 175.99 C109.54 179.2, 96.08 180.22, 83.81 178.87 C71.53 177.51, 58.33 173.77, 47.93 167.85 C37.53 161.93, 29.04 152.52, 21.43 143.34 C13.82 134.16, 5.79 123.58, 2.27 112.79 C-1.25 102.01, -1.14 90.1, 0.32 78.64 C1.77 67.18, 4.84 54.05, 10.98 44.03 C17.12 34.01, 27.39 25.4, 37.15 18.53 C46.91 11.65, 57.53 5.8, 69.55 2.77 C81.57 -0.26, 103.08 0.35, 109.27 0.36 C115.45 0.37, 106.94 1.09, 106.66 2.85" stroke="#1e1e1e" stroke-width="4" fill="none"></path></g><g stroke-linecap="round"><g transform="translate(534.7647731567486 616.3834348781247) rotate(0 0 59.89505922167109)"><path d="M0.44 0.07 C0.49 19.99, -0.72 99.6, -0.81 119.44 M-0.79 -0.94 C-0.26 19.16, 1.49 100.62, 1.48 120.79" stroke="#1e1e1e" stroke-width="4" fill="none"></path></g></g><mask></mask><g stroke-linecap="round"><g transform="translate(534.8234938030437 736.6433184918324) rotate(0 -54.48773168383377 31.458506555193253)"><path d="M0.07 -0.81 C-18.14 9.59, -91.04 52.23, -109.33 62.85 M-1.36 1.38 C-19.75 11.94, -92.83 53.88, -110.46 64.35" stroke="#1e1e1e" stroke-width="4" fill="none"></path></g></g><mask></mask><g stroke-linecap="round"><g transform="translate(534.1188460474987 735.9386707362828) rotate(0 54.48118073591286 31.454724363647983)"><path d="M-0.81 -0.35 C17.27 10, 90.6 51.76, 108.9 62.21 M0.97 -1.59 C18.84 8.91, 90.04 52.55, 107.91 63.38" stroke="#1e1e1e" stroke-width="4" fill="none"></path></g></g><mask></mask><g stroke-linecap="round"><g transform="translate(535.1758176808216 733.824727469635) rotate(0 0 56.547982382812734)"><path d="M-0.35 -0.07 C-0.48 18.92, -0.67 94.35, -0.7 113.09 M1.66 -1.15 C1.92 18.11, 2.19 95.55, 1.64 114.62" stroke="#1e1e1e" stroke-width="4" fill="none"></path></g></g><mask></mask><g stroke-linecap="round"><g transform="translate(534.471169925273 846.568368357488) rotate(0 -38.49138364686769 38.491383646868144)"><path d="M-0.07 -0.7 C-12.76 12.09, -64.05 63.29, -76.99 76.4 M-1.56 1.54 C-14.35 14.52, -65.66 65.2, -77.95 77.64" stroke="#1e1e1e" stroke-width="4" fill="none"></path></g></g><mask></mask><g stroke-linecap="round"><g transform="translate(535.1758176808216 845.8637206019384) rotate(0 37.30229055937889 37.30229055937889)"><path d="M-0.7 -0.01 C11.69 12.31, 61.31 61.33, 74.03 73.83 M1.13 -1.06 C13.96 11.4, 64.06 62.64, 76.43 74.97" stroke="#1e1e1e" stroke-width="4" fill="none"></path></g></g><mask></mask><g stroke-linecap="round" transform="translate(31.51040229128921 184.70629548979832) rotate(0 153.9344830453283 142.77981036088386)"><path d="M140.35 -0.09 C154.99 -3.43, 172.87 0.49, 188.54 3.79 C204.21 7.09, 220.62 12.1, 234.38 19.73 C248.14 27.37, 260.7 38.46, 271.1 49.61 C281.5 60.75, 290.79 73.17, 296.79 86.59 C302.79 100.01, 305.93 115.39, 307.1 130.12 C308.26 144.85, 307.45 160.6, 303.78 174.98 C300.12 189.35, 293.38 203.69, 285.1 216.36 C276.83 229.03, 266.17 241.35, 254.14 251 C242.1 260.65, 227.53 268.58, 212.9 274.27 C198.26 279.97, 182.1 284.01, 166.34 285.18 C150.57 286.35, 133.8 284.56, 118.3 281.28 C102.81 277.99, 86.97 272.9, 73.37 265.46 C59.76 258.02, 46.93 247.85, 36.69 236.64 C26.45 225.43, 17.85 211.9, 11.92 198.23 C5.99 184.55, 2.3 169.4, 1.13 154.58 C-0.04 139.76, 1.33 123.48, 4.89 109.31 C8.46 95.14, 14.27 82.07, 22.51 69.56 C30.75 57.05, 42.37 44.12, 54.32 34.26 C66.27 24.41, 77.64 16.3, 94.2 10.43 C110.77 4.56, 141.42 0.18, 153.71 -0.96 C165.99 -2.11, 167.76 0.91, 167.9 3.57 M165.47 1.08 C180.72 -0.11, 199.13 5.55, 213.97 11.04 C228.81 16.53, 242.79 24.52, 254.48 34.03 C266.18 43.54, 276.13 55.41, 284.12 68.09 C292.11 80.77, 298.66 95.86, 302.42 110.12 C306.18 124.38, 307.72 138.88, 306.67 153.64 C305.62 168.41, 302.23 185.19, 296.13 198.72 C290.04 212.24, 280.32 223.65, 270.1 234.79 C259.88 245.94, 248.28 257.57, 234.81 265.61 C221.34 273.66, 204.92 279.68, 189.26 283.04 C173.6 286.41, 156.73 287.3, 140.86 285.82 C125 284.34, 108.56 280.08, 94.07 274.18 C79.58 268.27, 65.67 260.06, 53.94 250.36 C42.21 240.67, 31.78 228.51, 23.69 216 C15.6 203.49, 9.24 189.27, 5.4 175.32 C1.56 161.38, -0.35 146.91, 0.67 132.34 C1.69 117.76, 5.74 101.82, 11.53 87.88 C17.31 73.93, 25.27 59.75, 35.39 48.66 C45.51 37.57, 58.66 28.85, 72.24 21.34 C85.81 13.82, 101.18 7.25, 116.84 3.58 C132.5 -0.09, 158.18 -0.49, 166.18 -0.69 C174.18 -0.89, 165.08 -0.29, 164.82 2.39" stroke="#1e1e1e" stroke-width="4" fill="none"></path></g><g stroke-linecap="round"><g transform="translate(184.6426280893611 468.8592185725429) rotate(0 0 95.65543945359695)"><path d="M-0.2 0.43 C-0.28 32.05, -0.43 158.67, -0.51 190.36 M-1.76 -0.39 C-2.05 31.3, -1.72 159.42, -1.73 191.39" stroke="#1e1e1e" stroke-width="4" fill="none"></path></g></g><mask></mask><g stroke-linecap="round"><g transform="translate(184.73640793196319 660.920336220548) rotate(0 -87.01966383833133 50.24082634185106)"><path d="M-0.51 -0.95 C-29.6 15.59, -145.81 82.69, -174.74 99.72 M1.42 1.16 C-27.26 17.81, -143.02 84.5, -172.39 100.86" stroke="#1e1e1e" stroke-width="4" fill="none"></path></g></g><mask></mask><g stroke-linecap="round"><g transform="translate(183.6110498207454 659.7949781093293) rotate(0 87.00920164311356 50.234785990625824)"><path d="M-0.7 -0.76 C28.39 16.27, 145.09 84.24, 174.01 101.22 M1.14 1.45 C30.11 18.23, 144.06 83.21, 173.06 99.49" stroke="#1e1e1e" stroke-width="4" fill="none"></path></g></g><mask></mask><g stroke-linecap="round"><g transform="translate(185.29908698757572 656.4189037756723) rotate(0 0 90.30998842530789)"><path d="M0 0.75 C-0.08 31.1, -1.17 151.15, -1.16 181.31 M-1.46 0.1 C-1.13 30.17, 0.81 149.58, 0.95 179.55" stroke="#1e1e1e" stroke-width="4" fill="none"></path></g></g><mask></mask><g stroke-linecap="round"><g transform="translate(184.1737288763543 836.4762015706774) rotate(0 -61.47268682532558 61.47268682532649)"><path d="M-1.16 0.69 C-21.64 21.24, -102.39 103.71, -122.88 124.04 M0.44 0.01 C-20.19 20.18, -103.42 101.85, -123.79 122.49" stroke="#1e1e1e" stroke-width="4" fill="none"></path></g></g><mask></mask><g stroke-linecap="round"><g transform="translate(185.29908698757572 835.3508434594569) rotate(0 59.57364501264419 59.57364501264465)"><path d="M0.07 1.09 C19.93 20.79, 98.33 99.19, 118.02 118.86 M-1.36 0.62 C18.96 20.43, 99.81 100.28, 120.13 120.25" stroke="#1e1e1e" stroke-width="4" fill="none"></path></g></g><mask></mask><g stroke-linecap="round" transform="translate(1133.1251744982728 9.99999999999909) rotate(0 186.00885865331293 172.52995585234885)"><path d="M174.18 1.1 C190.41 -2.47, 209.11 1.3, 226.15 4.85 C243.19 8.4, 261.15 14.83, 276.41 22.41 C291.67 29.98, 305.38 38.88, 317.71 50.31 C330.04 61.73, 342.11 76.48, 350.41 90.95 C358.7 105.42, 363.98 121.2, 367.47 137.13 C370.97 153.07, 372.47 170.67, 371.37 186.59 C370.26 202.5, 367.13 217.59, 360.85 232.61 C354.56 247.63, 344.27 263.61, 333.67 276.72 C323.06 289.82, 310.99 301.7, 297.21 311.24 C283.44 320.77, 267.36 328.38, 251.01 333.93 C234.67 339.47, 216.88 343.31, 199.17 344.51 C181.46 345.71, 161.92 344.75, 144.75 341.12 C127.57 337.49, 111.36 330.68, 96.13 322.72 C80.89 314.76, 65.62 304.75, 53.33 293.36 C41.05 281.97, 30.66 268.52, 22.41 254.38 C14.16 240.25, 7.4 224.26, 3.82 208.54 C0.24 192.82, -0.52 176.38, 0.94 160.06 C2.41 143.75, 6.47 125.75, 12.61 110.64 C18.75 95.54, 27.51 82.37, 37.81 69.45 C48.11 56.52, 60.37 43.05, 74.41 33.1 C88.45 23.15, 105.15 15.11, 122.05 9.74 C138.95 4.37, 166.44 1.87, 175.81 0.91 C185.19 -0.05, 178.05 1.21, 178.29 3.98 M248.06 11.54 C264.27 14.43, 280.3 25.48, 294.3 34.61 C308.3 43.73, 321.4 53.71, 332.05 66.29 C342.7 78.86, 351.53 94.59, 358.22 110.06 C364.91 125.54, 370.65 143.02, 372.19 159.13 C373.72 175.24, 371.11 191, 367.42 206.72 C363.73 222.43, 358.24 238.95, 350.04 253.42 C341.84 267.89, 330.3 282.04, 318.23 293.56 C306.16 305.08, 292.9 314.61, 277.63 322.52 C262.35 330.43, 243.8 337.39, 226.58 341.04 C209.36 344.69, 191.56 345.31, 174.31 344.42 C157.07 343.54, 139.26 341.16, 123.11 335.72 C106.96 330.28, 91.6 321.19, 77.41 311.76 C63.21 302.32, 48.52 292.07, 37.94 279.12 C27.35 266.16, 19.86 249.35, 13.89 234.01 C7.92 218.67, 4.02 203.22, 2.11 187.08 C0.21 170.95, -0.71 152.86, 2.45 137.19 C5.61 121.52, 12.65 107.08, 21.09 93.07 C29.53 79.05, 40.78 65.1, 53.08 53.08 C65.38 41.06, 79.55 29.21, 94.9 20.95 C110.24 12.68, 128.25 7.06, 145.15 3.48 C162.04 -0.1, 179.23 -1.55, 196.27 -0.55 C213.31 0.46, 238.75 7.01, 247.37 9.5 C255.99 11.99, 248.85 11.35, 247.97 14.4" stroke="#1e1e1e" stroke-width="4" fill="none"></path></g><g stroke-linecap="round"><g transform="translate(1318.1646145265004 353.3601091839846) rotate(0 0 115.58657140847026)"><path d="M-0.16 0.72 C-0.4 39.58, -0.8 193.55, -0.63 231.92 M-1.7 0.06 C-1.62 38.67, 1.37 191.51, 1.75 230.19" stroke="#1e1e1e" stroke-width="4" fill="none"></path></g></g><mask></mask><g stroke-linecap="round"><g transform="translate(1318.27793469455 585.4398133453033) rotate(0 -105.15141267078252 60.70919641114642)"><path d="M-0.63 0.75 C-35.51 20.82, -174.65 100.96, -209.44 121.18 M1.24 0.09 C-33.71 20.29, -174.78 102.6, -209.94 122.59" stroke="#1e1e1e" stroke-width="4" fill="none"></path></g></g><mask></mask><g stroke-linecap="round"><g transform="translate(1316.91809267797 584.0799713287324) rotate(0 105.13877053269425 60.70189746931692)"><path d="M0.86 -0.24 C36.16 19.98, 176.08 101.86, 211.17 122.05 M-0.15 -1.41 C35.13 18.4, 175.46 99.71, 210.69 120.27" stroke="#1e1e1e" stroke-width="4" fill="none"></path></g></g><mask></mask><g stroke-linecap="round"><g transform="translate(1318.957855702829 580.0004452790217) rotate(0 0 109.12732182976151)"><path d="M0.89 0.65 C0.94 36.98, 1.42 181.35, 1.12 217.77 M-0.1 -0.05 C-0.19 36.46, 0.5 182.82, 0.76 219.05" stroke="#1e1e1e" stroke-width="4" fill="none"></path></g></g><mask></mask><g stroke-linecap="round"><g transform="translate(1317.59801368626 797.5751679302575) rotate(0 -74.28137015514949 74.28137015514903)"><path d="M1.12 -0.49 C-23.94 24.31, -124.62 124.71, -149.48 149.46 M0.25 -1.79 C-24.52 22.63, -122.46 122.68, -147.25 147.81" stroke="#1e1e1e" stroke-width="4" fill="none"></path></g></g><mask></mask><g stroke-linecap="round"><g transform="translate(1318.957855702829 796.2153259136867) rotate(0 71.98663675218631 71.98663675218677)"><path d="M-0.92 0.9 C22.98 24.88, 120.25 119.59, 144.5 143.41 M0.8 0.33 C24.49 24.51, 119.93 120.53, 143.83 144.66" stroke="#1e1e1e" stroke-width="4" fill="none"></path></g></g><mask></mask><g stroke-linecap="round" transform="translate(768.4111945079603 329.6242706342791) rotate(0 119.1908797613869 110.55385948882213)"><path d="M94.63 3.3 C106.79 -0.86, 122.02 -0.87, 135.47 0.9 C148.93 2.66, 163.28 7.8, 175.34 13.9 C187.41 20.01, 198.94 28.17, 207.85 37.52 C216.77 46.88, 223.9 58.38, 228.85 70.03 C233.8 81.68, 237.1 95.07, 237.57 107.44 C238.03 119.81, 235.58 132.43, 231.64 144.26 C227.7 156.08, 222.02 168.43, 213.93 178.37 C205.84 188.31, 194.74 197.3, 183.08 203.91 C171.43 210.52, 157.5 215.41, 143.99 218.03 C130.47 220.65, 115.49 221.33, 101.99 219.64 C88.5 217.94, 75.07 213.73, 63.03 207.87 C50.98 202, 38.63 193.79, 29.7 184.45 C20.76 175.12, 14.27 163.39, 9.41 151.84 C4.55 140.3, 1.31 127.8, 0.56 115.18 C-0.18 102.56, 0.65 88.22, 4.93 76.14 C9.21 64.06, 17.57 52.58, 26.22 42.7 C34.87 32.82, 44.35 23.74, 56.84 16.87 C69.34 10.01, 92.87 3.77, 101.19 1.49 C109.52 -0.78, 106.61 1.36, 106.79 3.23 M136.55 1.11 C149.76 0.82, 163.16 5.73, 175.05 11.45 C186.93 17.17, 198.63 25.93, 207.87 35.44 C217.11 44.96, 225.35 56.62, 230.5 68.55 C235.65 80.47, 238.41 94.54, 238.75 106.99 C239.09 119.45, 236.75 131.15, 232.55 143.27 C228.35 155.39, 221.89 169.75, 213.55 179.73 C205.21 189.7, 193.86 196.55, 182.52 203.14 C171.18 209.72, 158.94 216.23, 145.5 219.23 C132.05 222.22, 115.74 222.89, 101.84 221.09 C87.95 219.3, 74.11 214.35, 62.14 208.43 C50.18 202.52, 39.05 194.76, 30.07 185.6 C21.09 176.43, 13.05 165.54, 8.28 153.45 C3.5 141.36, 1.58 126.09, 1.41 113.05 C1.23 100.02, 3.13 86.9, 7.23 75.24 C11.32 63.57, 18.02 52.55, 25.97 43.07 C33.91 33.59, 43.38 25.17, 54.89 18.35 C66.41 11.52, 81.33 4.95, 95.04 2.12 C108.74 -0.72, 130.49 1.35, 137.13 1.35 C143.77 1.36, 135.41 0.3, 134.89 2.13" stroke="#1e1e1e" stroke-width="4" fill="none"></path></g><g stroke-linecap="round"><g transform="translate(886.9808895600872 549.6427890258265) rotate(0 0 74.06563985458024)"><path d="M-0.5 0.21 C-0.5 24.98, -0.68 123.86, -0.42 148.46 M1.43 -0.72 C1.29 23.69, -1.48 121.56, -1.59 146.51" stroke="#1e1e1e" stroke-width="4" fill="none"></path></g></g><mask></mask><g stroke-linecap="round"><g transform="translate(887.0535029324928 698.3549757142373) rotate(0 -67.37899192071563 38.9012791231512)"><path d="M-0.42 0.33 C-22.62 13.21, -111.29 64.55, -133.71 77.51 M1.56 -0.54 C-20.66 12.5, -111.21 65.54, -134.11 78.89" stroke="#1e1e1e" stroke-width="4" fill="none"></path></g></g><mask></mask><g stroke-linecap="round"><g transform="translate(886.1821424636182 697.4836152453599) rotate(0 67.3708910830901 38.89660210236707)"><path d="M1.04 -0.3 C23.54 12.66, 112.06 65.05, 134.54 78.09 M0.13 -1.5 C22.49 11.06, 110.87 62.65, 133.48 76.13" stroke="#1e1e1e" stroke-width="4" fill="none"></path></g></g><mask></mask><g stroke-linecap="round"><g transform="translate(887.4891831669302 694.8695338387279) rotate(0 0 69.92667762741257)"><path d="M-0.21 0.3 C-0.18 23.68, 0.95 116.91, 1.18 140 M-1.77 -0.59 C-1.89 23.04, 0.39 118.25, 0.86 141.62" stroke="#1e1e1e" stroke-width="4" fill="none"></path></g></g><mask></mask><g stroke-linecap="round"><g transform="translate(886.6178226980519 834.2872088591166) rotate(0 -47.5980656124284 47.598065612428854)"><path d="M1.18 0.15 C-14.45 15.8, -78.14 78.5, -94.02 94.2 M0.35 -0.82 C-15.32 14.93, -78.58 79.21, -94.35 95.21" stroke="#1e1e1e" stroke-width="4" fill="none"></path></g></g><mask></mask><g stroke-linecap="round"><g transform="translate(887.4891831669302 833.4158483902384) rotate(0 46.127644821197464 46.12764482119837)"><path d="M1.18 -1 C16.55 14.2, 78.05 76.01, 93.39 91.37 M0.34 1.09 C15.54 16.41, 77.6 77.31, 93.03 92.44" stroke="#1e1e1e" stroke-width="4" fill="none"></path></g></g><mask></mask><g stroke-linecap="round" transform="translate(1610.3026682959244 379.45948492592834) rotate(0 112.13231820888723 104.0067879038952)"><path d="M69.71 7.32 C80.8 1.25, 95.75 0.9, 109.07 0.74 C122.39 0.58, 136.76 2.06, 149.62 6.34 C162.49 10.62, 175.96 18.22, 186.26 26.42 C196.57 34.63, 205.07 44.76, 211.44 55.57 C217.81 66.38, 222.93 78.74, 224.48 91.29 C226.03 103.85, 224.4 118.71, 220.76 130.91 C217.11 143.11, 210.4 154.33, 202.59 164.5 C194.78 174.68, 185.24 185.06, 173.89 191.94 C162.54 198.83, 147.75 203.44, 134.5 205.83 C121.24 208.22, 107.52 208.34, 94.35 206.29 C81.19 204.24, 67.23 199.87, 55.49 193.52 C43.76 187.17, 32.24 177.86, 23.95 168.17 C15.67 158.48, 9.59 147.3, 5.79 135.38 C1.99 123.46, 0.34 109.29, 1.16 96.64 C1.98 83.99, 5.21 70.73, 10.7 59.48 C16.19 48.22, 23.77 37.9, 34.11 29.1 C44.45 20.3, 65.43 10.36, 72.75 6.67 C80.07 2.99, 77.27 5.3, 78.01 7.01 M67.53 9.49 C78.77 3.3, 94.54 1.98, 107.84 1.45 C121.13 0.91, 134.74 2.65, 147.31 6.28 C159.88 9.91, 172.56 15.49, 183.27 23.22 C193.99 30.96, 205.16 41.79, 211.6 52.69 C218.04 63.59, 220.1 75.89, 221.9 88.63 C223.69 101.36, 225.26 116.71, 222.39 129.09 C219.53 141.48, 212.73 152.87, 204.69 162.95 C196.65 173.03, 185.26 182.48, 174.17 189.59 C163.08 196.71, 151.04 202.83, 138.17 205.61 C125.29 208.4, 110.22 207.92, 96.91 206.33 C83.59 204.74, 70.17 201.91, 58.28 196.07 C46.39 190.24, 34.25 181.26, 25.57 171.31 C16.88 161.36, 10.52 148.57, 6.19 136.37 C1.86 124.17, -0.93 110.29, -0.4 98.1 C0.14 85.92, 4.06 74.64, 9.4 63.26 C14.75 51.88, 21.98 38.97, 31.69 29.83 C41.41 20.7, 61.75 11.85, 67.72 8.44 C73.7 5.02, 66.86 7.74, 67.54 9.32" stroke="#1e1e1e" stroke-width="4" fill="none"></path></g><g stroke-linecap="round"><g transform="translate(1721.8505887587417 586.4483633159471) rotate(0 0 69.67942440852084)"><path d="M-0.94 -0.11 C-0.61 23.27, 1.13 116.57, 1.18 139.67 M0.77 -1.22 C1.12 21.84, 1.27 114.28, 0.85 137.71" stroke="#1e1e1e" stroke-width="4" fill="none"></path></g></g><mask></mask><g stroke-linecap="round"><g transform="translate(1721.9189019199293 726.3537174224657) rotate(0 -63.38876412166064 36.597520029238694)"><path d="M1.18 0.31 C-19.89 12.39, -106.21 60.35, -127.39 72.33 M0.34 -0.57 C-20.25 11.64, -103.9 61.15, -125 73.41" stroke="#1e1e1e" stroke-width="4" fill="none"></path></g></g><mask></mask><g stroke-linecap="round"><g transform="translate(1721.0991439857062 725.533959488248) rotate(0 63.38114302091708 36.593119984672285)"><path d="M-0.61 -0.87 C20.46 11.11, 106.38 59.79, 127.62 72.2 M1.27 1.29 C22.16 13.36, 106.32 61.52, 127.13 73.21" stroke="#1e1e1e" stroke-width="4" fill="none"></path></g></g><mask></mask><g stroke-linecap="round"><g transform="translate(1722.3287808870336 723.074685685594) rotate(0 0 65.78557422098584)"><path d="M0.86 -0.99 C0.98 21.15, 0.09 109.88, 0.1 131.97 M-0.14 1.1 C-0.12 22.95, -0.92 108.1, -0.8 130.06" stroke="#1e1e1e" stroke-width="4" fill="none"></path></g></g><mask></mask><g stroke-linecap="round"><g transform="translate(1721.5090229528178 854.2359551604559) rotate(0 -44.779277156652824 44.77927715665237)"><path d="M0.1 0.4 C-14.83 15.49, -73.72 74.51, -88.69 89.55 M-1.31 -0.43 C-16.4 14.95, -74.3 76.19, -89.18 91.09" stroke="#1e1e1e" stroke-width="4" fill="none"></path></g></g><mask></mask><g stroke-linecap="round"><g transform="translate(1722.3287808870336 853.4161972262382) rotate(0 43.39593564266033 43.39593564265988)"><path d="M0.87 -0.01 C15.29 14.58, 72.49 73.41, 86.62 87.91 M-0.13 -1.05 C14.11 13.19, 70.9 71.47, 85.58 86.38" stroke="#1e1e1e" stroke-width="4" fill="none"></path></g></g><mask></mask><g stroke-linecap="round"><g transform="translate(2027.3387862305426 613.7133675914029) rotate(0 215 0)"><path d="M-0.14 -0.67 C71.23 -0.62, 357.77 0.09, 429.45 0.04 M-1.68 1.6 C69.39 1.87, 356.41 1.89, 428.22 1.59" stroke="#1e1e1e" stroke-width="2" fill="none"></path></g><g transform="translate(2027.3387862305426 613.7133675914029) rotate(0 215 0)"><path d="M404.74 10.18 C413.02 5.87, 423.57 3.3, 428.22 1.59 M404.74 10.18 C410.85 8.05, 415.38 6.96, 428.22 1.59" stroke="#1e1e1e" stroke-width="2" fill="none"></path></g><g transform="translate(2027.3387862305426 613.7133675914029) rotate(0 215 0)"><path d="M404.71 -6.92 C412.97 -4.4, 423.53 -0.14, 428.22 1.59 M404.71 -6.92 C410.87 -5.31, 415.42 -2.67, 428.22 1.59" stroke="#1e1e1e" stroke-width="2" fill="none"></path></g></g><mask></mask><g stroke-linecap="round"><g transform="translate(2360.3701785077283 514.3047479771449) rotate(0 48.09110929357121 50.32391079648869)"><path d="M0.81 0.02 C16.82 16.59, 80.94 83.05, 96.67 99.75 M-0.22 -1.01 C15.61 15.66, 79.68 83.76, 95.98 100.81" stroke="#1e1e1e" stroke-width="2" fill="none"></path></g></g><mask></mask><g stroke-linecap="round"><g transform="translate(2455.8653812478224 614.9525695701223) rotate(0 -44.99953798184288 48.9498791023866)"><path d="M-0.54 -0.67 C-15.57 15.46, -74.73 80.88, -89.75 97.13 M1.38 1.6 C-13.82 17.82, -75.64 82.26, -90.57 98.27" stroke="#1e1e1e" stroke-width="2" fill="none"></path></g></g><mask></mask><g stroke-linecap="round" transform="translate(2622.4090997091407 9.99999999999909) rotate(0 186.00885865331293 172.52995585234885)"><path d="M221.36 3.44 C238.25 3.73, 254.96 12.48, 270.47 19.61 C285.97 26.73, 301.77 35.27, 314.38 46.2 C326.99 57.12, 337.55 70.87, 346.14 85.17 C354.74 99.47, 361.81 116.14, 365.96 132.01 C370.11 147.88, 371.81 164.26, 371.04 180.39 C370.27 196.52, 366.98 213.65, 361.35 228.8 C355.72 243.95, 347.3 258.07, 337.27 271.29 C327.24 284.51, 314.57 297.93, 301.16 308.12 C287.76 318.32, 272.88 326.32, 256.85 332.46 C240.82 338.6, 222.39 343.32, 204.97 344.97 C187.55 346.61, 169.63 345.54, 152.32 342.34 C135.02 339.14, 116.81 333.27, 101.16 325.76 C85.52 318.25, 71.12 308.23, 58.46 297.28 C45.8 286.32, 33.98 273.83, 25.19 260.05 C16.41 246.26, 10.06 230.44, 5.73 214.54 C1.39 198.64, -1.69 181.12, -0.82 164.67 C0.04 148.22, 5.09 131.11, 10.93 115.84 C16.77 100.57, 24.4 86.21, 34.22 73.05 C44.03 59.89, 56.22 47.12, 69.83 36.89 C83.44 26.66, 99.57 17.56, 115.87 11.67 C132.18 5.78, 148.94 2.76, 167.65 1.56 C186.35 0.36, 216.55 3.21, 228.1 4.47 C239.65 5.73, 237.69 6.43, 236.97 9.13 M155.42 1.28 C171.18 -4.01, 191.71 -2.05, 209.2 0.23 C226.69 2.52, 244.53 8.19, 260.34 14.99 C276.15 21.79, 290.91 30.85, 304.05 41.03 C317.19 51.21, 329.34 62.97, 339.19 76.08 C349.04 89.2, 357.57 104.07, 363.13 119.75 C368.7 135.43, 372.39 153.83, 372.56 170.16 C372.73 186.48, 368.88 202.27, 364.17 217.72 C359.47 233.17, 353.1 249.01, 344.31 262.86 C335.53 276.71, 324.57 290.06, 311.48 300.8 C298.39 311.53, 281.82 320.03, 265.77 327.25 C249.73 334.48, 232.17 341.32, 215.2 344.16 C198.24 346.99, 181.05 346.34, 163.98 344.26 C146.91 342.17, 128.78 337.98, 112.76 331.64 C96.74 325.31, 81.24 316.66, 67.85 306.22 C54.45 295.79, 42.09 282.65, 32.4 269.03 C22.72 255.42, 15.04 239.92, 9.75 224.55 C4.46 209.19, 1.15 192.82, 0.66 176.86 C0.17 160.91, 2.21 144.77, 6.81 128.82 C11.41 112.87, 19.21 95.37, 28.24 81.17 C37.28 66.98, 48.41 54.49, 61.01 43.65 C73.61 32.82, 88.02 22.95, 103.84 16.16 C119.66 9.36, 147.16 4.4, 155.94 2.91 C164.72 1.41, 156.13 4.41, 156.53 7.2" stroke="#1e1e1e" stroke-width="4" fill="none"></path></g><g stroke-linecap="round"><g transform="translate(2807.4485397373683 353.3601091839846) rotate(0 0 115.58657140847026)"><path d="M0.45 -0.31 C0.32 38.49, -0.16 193.72, -0.14 232.29 M-0.78 -1.52 C-1.13 37.01, -1.31 191.77, -1.17 230.75" stroke="#1e1e1e" stroke-width="4" fill="none"></path></g></g><mask></mask><g stroke-linecap="round"><g transform="translate(2807.561859905418 585.4398133453033) rotate(0 -105.15141267078252 60.70919641114642)"><path d="M-0.14 1.11 C-35.18 21.39, -174.87 101.16, -209.75 121.33 M-1.68 0.65 C-36.86 21.15, -175.74 102.9, -210.41 122.82" stroke="#1e1e1e" stroke-width="4" fill="none"></path></g></g><mask></mask><g stroke-linecap="round"><g transform="translate(2806.202017888838 584.0799713287324) rotate(0 105.13877053269425 60.70189746931692)"><path d="M0.55 -0.09 C35.78 20.07, 176.43 101.96, 211.19 122.1 M-0.61 -1.18 C34.54 19.15, 175.39 99.87, 210.72 120.35" stroke="#1e1e1e" stroke-width="4" fill="none"></path></g></g><mask></mask><g stroke-linecap="round"><g transform="translate(2808.241780913697 580.0004452790217) rotate(0 0 109.12732182976151)"><path d="M0.91 0.7 C0.63 36.98, -0.91 181.45, -1.16 217.59 M-0.07 0.02 C-0.05 36.45, 1.21 182.37, 0.95 218.77" stroke="#1e1e1e" stroke-width="4" fill="none"></path></g></g><mask></mask><g stroke-linecap="round"><g transform="translate(2806.881938897128 797.5751679302575) rotate(0 -74.28137015514949 74.28137015514903)"><path d="M-1.16 -0.67 C-26.16 23.85, -124.73 123.1, -149.12 147.81 M0.44 1.59 C-24.85 26.19, -125.66 124.49, -150.36 148.96" stroke="#1e1e1e" stroke-width="4" fill="none"></path></g></g><mask></mask><g stroke-linecap="round"><g transform="translate(2808.241780913697 796.2153259136867) rotate(0 71.98663675218631 71.98663675218677)"><path d="M-0.56 -0.75 C23.8 23.2, 120.85 119.03, 145.01 143.01 M1.35 1.47 C25.75 25.6, 120.85 120.29, 144.61 144.04" stroke="#1e1e1e" stroke-width="4" fill="none"></path></g></g><mask></mask><g stroke-linecap="round" transform="translate(3154.4936636425664 184.70629548979832) rotate(0 153.9344830453283 142.77981036088386)"><path d="M100.44 9.46 C113.57 2.31, 131.46 1.08, 147.03 0.5 C162.61 -0.08, 178.66 2.15, 193.88 5.97 C209.1 9.8, 224.91 15.6, 238.35 23.47 C251.8 31.34, 264.6 41.8, 274.58 53.18 C284.56 64.57, 292.78 77.93, 298.23 91.76 C303.67 105.59, 306.54 121.5, 307.24 136.17 C307.94 150.83, 306.65 165.4, 302.43 179.73 C298.21 194.07, 290.74 209.85, 281.92 222.17 C273.11 234.48, 261.71 244.52, 249.54 253.6 C237.38 262.68, 223.58 271.2, 208.93 276.64 C194.28 282.08, 177.61 285.75, 161.64 286.26 C145.68 286.76, 128.63 283.71, 113.14 279.67 C97.64 275.63, 81.98 269.98, 68.66 262.04 C55.33 254.09, 43.06 243.48, 33.18 232.02 C23.3 220.56, 14.96 206.99, 9.36 193.27 C3.76 179.56, 0.12 164.46, -0.43 149.73 C-0.99 135, 1.77 119.01, 6.02 104.9 C10.28 90.78, 16.48 77.46, 25.1 65.04 C33.71 52.62, 44.07 40.21, 57.72 30.39 C71.36 20.56, 97.33 9.74, 106.95 6.09 C116.57 2.44, 114.58 5.94, 115.43 8.48 M180.78 0.78 C196.13 0.97, 211.68 9.89, 225.67 16.96 C239.65 24.03, 253.44 32.82, 264.67 43.22 C275.91 53.63, 286.24 65.94, 293.05 79.39 C299.86 92.85, 303.53 109.02, 305.53 123.95 C307.53 138.88, 307.58 154.61, 305.03 168.95 C302.48 183.29, 297.57 197.45, 290.24 210 C282.9 222.54, 272.6 234.01, 261.02 244.22 C249.43 254.43, 235 264.43, 220.72 271.25 C206.43 278.07, 191.02 282.99, 175.31 285.14 C159.61 287.29, 141.94 286.93, 126.48 284.14 C111.02 281.35, 96.55 275.67, 82.58 268.41 C68.6 261.14, 53.67 250.94, 42.63 240.55 C31.58 230.16, 23.08 219.21, 16.32 206.05 C9.57 192.89, 4.6 176.06, 2.09 161.58 C-0.41 147.11, -1.28 133.38, 1.28 119.2 C3.83 105.03, 9.84 89.58, 17.42 76.52 C25 63.45, 35.19 51.2, 46.74 40.81 C58.28 30.43, 72.36 21.03, 86.68 14.2 C101 7.38, 116.97 1.85, 132.67 -0.12 C148.38 -2.09, 173.16 1.66, 180.91 2.4 C188.67 3.14, 179.45 2, 179.21 4.32" stroke="#1e1e1e" stroke-width="4" fill="none"></path></g><g stroke-linecap="round"><g transform="translate(3307.6258894406383 468.8592185725429) rotate(0 0 95.65543945359695)"><path d="M-0.87 1.11 C-0.57 33.18, 0.89 160.61, 1.09 192.38 M0.88 0.65 C1.18 32.41, 0.91 159.33, 0.71 190.81" stroke="#1e1e1e" stroke-width="4" fill="none"></path></g></g><mask></mask><g stroke-linecap="round"><g transform="translate(3307.7196692832404 660.920336220548) rotate(0 -87.01966383833133 50.24082634185106)"><path d="M1.09 1.06 C-27.72 17.69, -144.62 84.44, -173.74 100.87 M0.2 0.58 C-28.67 17.34, -145.47 82.29, -174.53 98.95" stroke="#1e1e1e" stroke-width="4" fill="none"></path></g></g><mask></mask><g stroke-linecap="round"><g transform="translate(3306.5943111720226 659.7949781093293) rotate(0 87.00920164311356 50.234785990625824)"><path d="M0.3 0.39 C29.19 16.81, 145.29 82.97, 174.43 99.63 M-1 -0.46 C27.67 16.62, 144.37 83.72, 173.69 100.73" stroke="#1e1e1e" stroke-width="4" fill="none"></path></g></g><mask></mask><g stroke-linecap="round"><g transform="translate(3308.282348338853 656.4189037756723) rotate(0 0 90.30998842530789)"><path d="M0.41 -0.84 C0.54 29.18, 1.15 150.14, 1.09 180.48 M-0.84 1.33 C-0.8 31.51, 0.7 152.3, 0.71 181.94" stroke="#1e1e1e" stroke-width="4" fill="none"></path></g></g><mask></mask><g stroke-linecap="round"><g transform="translate(3307.1569902276315 836.4762015706774) rotate(0 -61.47268682532558 61.47268682532649)"><path d="M1.09 -0.14 C-19.47 20.59, -102.19 102.96, -122.93 123.54 M0.2 -1.26 C-20.55 19.19, -103.12 101.32, -123.87 121.72" stroke="#1e1e1e" stroke-width="4" fill="none"></path></g></g><mask></mask><g stroke-linecap="round"><g transform="translate(3308.282348338853 835.3508434594569) rotate(0 59.57364501264419 59.57364501264465)"><path d="M0.01 0.59 C19.62 20.53, 98.99 99.82, 118.73 119.49 M-1.44 -0.15 C17.88 19.43, 97.78 97.59, 117.57 117.55" stroke="#1e1e1e" stroke-width="4" fill="none"></path></g></g><mask></mask><g stroke-linecap="round" transform="translate(3676.117904367027 280.994168563916) rotate(0 128.84333919160417 119.50686533714088)"><path d="M109.59 1.58 C122.8 -2.31, 138.98 -0.61, 153.38 2.07 C167.79 4.76, 183.22 10.58, 196.02 17.68 C208.83 24.78, 220.94 33.93, 230.19 44.68 C239.43 55.44, 246.96 69.28, 251.5 82.2 C256.04 95.12, 258.02 108.63, 257.44 122.21 C256.85 135.8, 253.2 150.93, 247.97 163.73 C242.75 176.52, 235.75 188.99, 226.08 198.99 C216.4 208.99, 202.78 217.34, 189.95 223.71 C177.11 230.08, 163.38 235.08, 149.05 237.19 C134.73 239.29, 118.46 238.95, 104 236.33 C89.54 233.71, 74.96 228.53, 62.29 221.47 C49.63 214.41, 37.46 204.6, 28.04 193.95 C18.61 183.3, 10.38 170.6, 5.73 157.56 C1.09 144.53, -0.29 129.23, 0.16 115.75 C0.61 102.28, 3.08 89.27, 8.43 76.71 C13.77 64.16, 22.58 50.93, 32.25 40.43 C41.93 29.92, 51.99 20.38, 66.49 13.68 C80.99 6.98, 109.02 2.01, 119.23 0.21 C129.45 -1.59, 127.49 0.94, 127.78 2.9 M139.77 1.52 C153.74 0.93, 169.52 7.29, 183.01 12.72 C196.49 18.15, 210.14 24.67, 220.7 34.08 C231.27 43.49, 240.17 56.64, 246.39 69.17 C252.6 81.69, 257.11 95.37, 258.01 109.23 C258.91 123.08, 255.83 138.94, 251.79 152.28 C247.75 165.61, 242.2 178.44, 233.78 189.24 C225.37 200.03, 213.09 209.62, 201.29 217.08 C189.5 224.53, 177.06 230.6, 163.01 233.96 C148.96 237.31, 131.9 238.34, 116.98 237.19 C102.06 236.04, 86.52 232.52, 73.48 227.06 C60.45 221.61, 49.2 214.27, 38.78 204.47 C28.36 194.67, 17.45 180.59, 10.96 168.26 C4.46 155.94, 0.81 144.14, -0.2 130.54 C-1.2 116.93, 0.89 99.86, 4.91 86.63 C8.92 73.4, 15.56 61.94, 23.9 51.16 C32.25 40.37, 42.86 29.78, 54.98 21.92 C67.1 14.05, 82.2 7.49, 96.6 3.95 C111 0.42, 133.86 0.9, 141.39 0.68 C148.92 0.45, 141.97 0.45, 141.77 2.61" stroke="#1e1e1e" stroke-width="4" fill="none"></path></g><g stroke-linecap="round"><g transform="translate(3804.2897533208234 518.8304916979305) rotate(0 0 80.06371273818286)"><path d="M-0.36 0.89 C-0.17 27.47, 0.31 133.74, 0.42 160.09 M1.65 0.32 C1.78 27.04, 0.02 135.05, -0.31 161.6" stroke="#1e1e1e" stroke-width="4" fill="none"></path></g></g><mask></mask><g stroke-linecap="round"><g transform="translate(3804.368247156839 679.5858678624372) rotate(0 -72.83555862502908 42.05162937873729)"><path d="M0.42 -0.04 C-23.75 13.63, -120.98 68.91, -145.39 82.94 M-0.82 -1.11 C-25.1 12.59, -121.82 69.44, -146.18 83.87" stroke="#1e1e1e" stroke-width="4" fill="none"></path></g></g><mask></mask><g stroke-linecap="round"><g transform="translate(3803.426321124629 678.6439418302234) rotate(0 72.82680175560927 42.04657359782095)"><path d="M0.29 -1.16 C24.43 12.86, 121.04 69.78, 145.3 84.11 M-1.02 0.84 C22.9 15.07, 119.8 71.99, 144.17 85.66" stroke="#1e1e1e" stroke-width="4" fill="none"></path></g></g><mask></mask><g stroke-linecap="round"><g transform="translate(3804.839210172944 675.818163733582) rotate(0 0 75.58956408516678)"><path d="M-0.35 0.02 C-0.37 25.54, 0.19 126.63, 0.19 151.93 M1.66 -1.01 C1.48 24.26, -0.16 125.06, -0.66 150.2" stroke="#1e1e1e" stroke-width="4" fill="none"></path></g></g><mask></mask><g stroke-linecap="round"><g transform="translate(3803.8972841407303 826.5263288878114) rotate(0 -51.45270950968552 51.452709509685064)"><path d="M0.19 0.75 C-16.96 18, -86.23 86.56, -103.26 103.54 M-1.17 0.09 C-18.48 17, -87.55 84.46, -104.39 101.75" stroke="#1e1e1e" stroke-width="4" fill="none"></path></g></g><mask></mask><g stroke-linecap="round"><g transform="translate(3804.839210172944 825.5844028555966) rotate(0 49.863209330324025 49.863209330324025)"><path d="M-0.35 0.64 C16.39 17.09, 84.03 83.12, 100.66 99.47 M1.66 -0.07 C18.31 16.5, 84.06 84.27, 100.2 100.88" stroke="#1e1e1e" stroke-width="4" fill="none"></path></g></g><mask></mask><g stroke-linecap="round" transform="translate(4083.416580464276 379.45948492592834) rotate(0 112.13231820888723 104.0067879038952)"><path d="M156.42 8.25 C168.68 11.5, 179.87 20.31, 189.5 29.06 C199.14 37.8, 208.54 49.17, 214.24 60.73 C219.94 72.28, 223.04 85.95, 223.7 98.38 C224.36 110.8, 222.17 123.48, 218.18 135.28 C214.2 147.08, 208.04 159.3, 199.78 169.18 C191.52 179.07, 180.43 188.29, 168.62 194.6 C156.81 200.92, 142.56 205.3, 128.93 207.07 C115.29 208.85, 99.98 207.97, 86.81 205.24 C73.64 202.5, 60.86 197.63, 49.9 190.67 C38.93 183.72, 28.7 173.66, 21.02 163.52 C13.34 153.38, 7.22 141.96, 3.83 129.81 C0.44 117.66, -0.79 103.08, 0.69 90.63 C2.17 78.17, 6.14 65.98, 12.7 55.07 C19.27 44.17, 29.75 33.56, 40.08 25.22 C50.4 16.88, 61.87 9.33, 74.68 5.06 C87.49 0.78, 100.75 -2.13, 116.95 -0.43 C133.14 1.28, 160.69 10.81, 171.87 15.29 C183.05 19.76, 185.14 24.9, 184.03 26.42 M58.09 11.57 C68.8 4.51, 86.26 2.38, 99.85 0.81 C113.45 -0.77, 127.02 -1, 139.67 2.12 C152.33 5.24, 164.81 12.27, 175.79 19.52 C186.76 26.77, 197.75 34.96, 205.53 45.61 C213.31 56.25, 219.67 70.93, 222.48 83.4 C225.29 95.88, 224.65 108.19, 222.4 120.45 C220.16 132.71, 215.84 146.02, 209 156.97 C202.15 167.93, 191.99 178.27, 181.34 186.18 C170.68 194.1, 157.73 201.08, 145.06 204.46 C132.39 207.84, 118.57 207.54, 105.32 206.47 C92.07 205.41, 77.75 203.16, 65.57 198.05 C53.39 192.94, 41.92 184.55, 32.23 175.82 C22.54 167.08, 12.84 156.99, 7.43 145.64 C2.03 134.28, 0.12 120.55, -0.2 107.71 C-0.52 94.87, 0.72 80.7, 5.51 68.58 C10.3 56.47, 19.59 44.65, 28.55 35.04 C37.51 25.44, 54.03 14.53, 59.27 10.96 C64.51 7.38, 58.87 11.71, 60 13.6" stroke="#1e1e1e" stroke-width="4" fill="none"></path></g><g stroke-linecap="round"><g transform="translate(4194.9645009270935 586.4483633159471) rotate(0 0 69.67942440852084)"><path d="M0.97 0.42 C0.64 23.55, -0.89 116.67, -1.07 139.63 M0.02 -0.4 C-0.03 22.27, 1.24 114.44, 1.07 137.66" stroke="#1e1e1e" stroke-width="4" fill="none"></path></g></g><mask></mask><g stroke-linecap="round"><g transform="translate(4195.032814088281 726.3537174224657) rotate(0 -63.38876412166064 36.597520029238694)"><path d="M-1.07 0.28 C-22.39 12.21, -105.85 59.88, -126.91 72.05 M0.56 -0.62 C-21 11.38, -106.42 60.43, -127.93 72.98" stroke="#1e1e1e" stroke-width="4" fill="none"></path></g></g><mask></mask><g stroke-linecap="round"><g transform="translate(4194.213056154058 725.533959488248) rotate(0 63.38114302091708 36.593119984672285)"><path d="M-0.13 -1.15 C21.07 11.02, 105.01 60.97, 126.13 73.28 M-1.66 0.86 C20.03 13.22, 107.28 62.72, 128.51 74.87" stroke="#1e1e1e" stroke-width="4" fill="none"></path></g></g><mask></mask><g stroke-linecap="round"><g transform="translate(4195.4426930553855 723.074685685594) rotate(0 0 65.78557422098584)"><path d="M-0.63 0.1 C-0.63 22.14, -0.34 109.35, -0.15 131.12 M1.24 -0.9 C1.08 21.41, -0.97 110.33, -1.18 132.42" stroke="#1e1e1e" stroke-width="4" fill="none"></path></g></g><mask></mask><g stroke-linecap="round"><g transform="translate(4194.62293512117 854.2359551604559) rotate(0 -44.779277156652824 44.77927715665237)"><path d="M-0.15 -0.45 C-14.89 14.32, -74.03 73.62, -89.05 88.73 M-1.69 -1.73 C-16.49 13.16, -75.39 74.85, -89.73 89.83" stroke="#1e1e1e" stroke-width="4" fill="none"></path></g></g><mask></mask><g stroke-linecap="round"><g transform="translate(4195.4426930553855 853.4161972262382) rotate(0 43.39593564266033 43.39593564265988)"><path d="M0.51 -0.83 C14.88 13.82, 71.77 72.66, 86.09 87.42 M-0.68 1.35 C14.09 15.68, 74.07 71.54, 88.43 85.62" stroke="#1e1e1e" stroke-width="4" fill="none"></path></g></g><mask></mask><g stroke-linecap="round" transform="translate(4485.128884697722 513.0906873102622) rotate(0 81.58840690034049 75.67620350176458)"><path d="M49.95 6.89 C59.11 2.1, 72.9 0.58, 83.76 0.73 C94.62 0.89, 105.36 3.47, 115.12 7.82 C124.88 12.17, 134.77 19.31, 142.33 26.84 C149.89 34.37, 157.1 43.44, 160.47 53 C163.83 62.56, 163.89 73.79, 162.55 84.22 C161.21 94.66, 157.98 106.65, 152.42 115.6 C146.87 124.55, 138.4 132.16, 129.23 137.94 C120.06 143.73, 108.55 148.25, 97.43 150.31 C86.3 152.37, 73.33 152.68, 62.48 150.31 C51.64 147.94, 40.96 142.48, 32.33 136.1 C23.7 129.71, 15.99 121.05, 10.7 111.98 C5.41 102.9, 1.71 91.79, 0.59 81.64 C-0.52 71.49, 0.44 60.81, 4 51.08 C7.57 41.35, 12.8 31.17, 21.97 23.28 C31.15 15.39, 51.12 7.35, 59.07 3.74 C67.01 0.14, 69.09 0.54, 69.66 1.64 M100.05 1.12 C110.31 2.25, 122.76 8.75, 131.68 15.11 C140.6 21.47, 148.36 30.2, 153.59 39.26 C158.82 48.31, 162.2 58.93, 163.05 69.45 C163.89 79.96, 162.48 92.61, 158.65 102.36 C154.81 112.1, 147.61 120.68, 140.04 127.92 C132.47 135.17, 123.65 141.84, 113.21 145.83 C102.76 149.83, 88.81 152.01, 77.37 151.9 C65.94 151.78, 54.13 149.53, 44.61 145.12 C35.09 140.72, 26.96 133.46, 20.25 125.46 C13.55 117.46, 7.85 107.1, 4.39 97.11 C0.92 87.12, -1.86 76.02, -0.55 65.53 C0.75 55.05, 6.26 42.92, 12.21 34.18 C18.15 25.44, 25.97 18.68, 35.14 13.09 C44.3 7.49, 56.05 2.57, 67.18 0.59 C78.31 -1.39, 96.44 0.55, 101.91 1.2 C107.38 1.85, 100.51 2.9, 100 4.48" stroke="#1e1e1e" stroke-width="4" fill="none"></path></g><g stroke-linecap="round"><g transform="translate(4566.292078939841 663.6975159541689) rotate(0 0 50.69932845438416)"><path d="M-0.96 1 C-0.86 17.75, -0.02 84.75, 0.32 101.63 M0.73 0.48 C0.73 17.35, -0.49 82.98, -0.47 99.62" stroke="#1e1e1e" stroke-width="4" fill="none"></path></g></g><mask></mask><g stroke-linecap="round"><g transform="translate(4566.341784163815 765.4938146547356) rotate(0 -46.12219173453195 26.628659813547074)"><path d="M0.32 0.23 C-14.72 9.07, -75.89 45.45, -91.17 54.09 M-0.98 -0.7 C-15.99 8.34, -76.44 43.5, -91.56 52.41" stroke="#1e1e1e" stroke-width="4" fill="none"></path></g></g><mask></mask><g stroke-linecap="round"><g transform="translate(4565.745321476119 764.8973519670371) rotate(0 46.116646558273715 26.625458304542462)"><path d="M1.07 0.83 C16.53 9.47, 77.76 43.49, 93.1 52.06 M0.17 0.23 C15.53 8.94, 77.17 44.17, 92.6 52.97" stroke="#1e1e1e" stroke-width="4" fill="none"></path></g></g><mask></mask><g stroke-linecap="round"><g transform="translate(4566.640015507666 763.1079639039408) rotate(0 0 47.86613068781571)"><path d="M0.86 -1.19 C0.83 14.45, 0.84 78.37, 0.85 94.69 M-0.14 0.79 C-0.36 16.48, 0.22 80, 0.35 95.69" stroke="#1e1e1e" stroke-width="4" fill="none"></path></g></g><mask></mask><g stroke-linecap="round"><g transform="translate(4566.0435528199705 858.5419939357243) rotate(0 -32.581774315538496 32.58177431553804)"><path d="M0.85 -1.04 C-10 10.19, -53.11 55.14, -64.23 66.17 M-0.16 1.03 C-11.16 12.04, -54.16 53.67, -64.69 64.57" stroke="#1e1e1e" stroke-width="4" fill="none"></path></g></g><mask></mask><g stroke-linecap="round"><g transform="translate(4566.640015507666 857.945531248025) rotate(0 31.575243530047373 31.575243530046464)"><path d="M0.93 1.01 C11.2 11.7, 52.21 52.59, 62.44 63.13 M-0.04 0.49 C10.54 11.48, 53.98 54.32, 64.77 64.66" stroke="#1e1e1e" stroke-width="4" fill="none"></path></g></g><mask></mask></svg>